<?xml version="1.0" encoding="UTF-8"?>
<!DOCTYPE svg PUBLIC "-//W3C//DTD SVG 1.1//EN" "http://www.w3.org/Graphics/SVG/1.1/DTD/svg11.dtd">
<svg xmlns="http://www.w3.org/2000/svg" version="1.1" width="1024px" height="1024px" style="shape-rendering:geometricPrecision; text-rendering:geometricPrecision; image-rendering:optimizeQuality; fill-rule:evenodd; clip-rule:evenodd" xmlns:xlink="http://www.w3.org/1999/xlink">
<g><path style="opacity:1" fill="#123d57" d="M -0.5,-0.5 C 340.833,-0.5 682.167,-0.5 1023.5,-0.5C 1023.5,340.833 1023.5,682.167 1023.5,1023.5C 682.167,1023.5 340.833,1023.5 -0.5,1023.5C -0.5,682.167 -0.5,340.833 -0.5,-0.5 Z"/></g>
<g><path style="opacity:1" fill="#fbfcfc" d="M 559.5,127.5 C 594.799,124.7 624.132,136.367 647.5,162.5C 607.684,206.15 567.684,249.65 527.5,293C 551.453,307.966 576.786,310.633 603.5,301C 629.457,289.382 645.457,269.715 651.5,242C 657.478,242.497 663.478,243.33 669.5,244.5C 661.038,284.254 637.371,310.088 598.5,322C 554.435,331.759 518.602,318.926 491,283.5C 468.497,246.809 467.83,209.809 489,172.5C 506.397,147.935 529.897,132.935 559.5,127.5 Z"/></g>
<g><path style="opacity:1" fill="#fdfdfd" d="M 481.5,128.5 C 481.5,134.5 481.5,140.5 481.5,146.5C 478.941,146.198 476.607,146.532 474.5,147.5C 434.832,151.241 404.999,170.241 385,204.5C 379.206,215.548 375.206,227.215 373,239.5C 371.587,268.475 371.087,297.475 371.5,326.5C 365.5,326.5 359.5,326.5 353.5,326.5C 353.5,260.5 353.5,194.5 353.5,128.5C 359.5,128.5 365.5,128.5 371.5,128.5C 371.333,148.836 371.5,169.169 372,189.5C 397.873,150.309 434.373,129.976 481.5,128.5 Z"/></g>
<g><path style="opacity:1" fill="#7991a0" d="M 481.5,128.5 C 482.49,134.645 482.823,140.978 482.5,147.5C 479.833,147.5 477.167,147.5 474.5,147.5C 476.607,146.532 478.941,146.198 481.5,146.5C 481.5,140.5 481.5,134.5 481.5,128.5 Z"/></g>
<g><path style="opacity:1" fill="#133d57" d="M 559.5,146.5 C 578.239,144.77 595.905,148.27 612.5,157C 615.39,158.938 618.056,161.105 620.5,163.5C 585.219,202.95 549.386,241.95 513,280.5C 493.483,258.145 487.483,232.479 495,203.5C 506.106,172.551 527.606,153.551 559.5,146.5 Z"/></g>
<g><path style="opacity:1" fill="#92a5b1" d="M 431.5,399.5 C 484.664,398.501 537.997,398.168 591.5,398.5C 591.819,403.363 591.486,408.03 590.5,412.5C 590.5,412.167 590.5,411.833 590.5,411.5C 590.5,407.5 590.5,403.5 590.5,399.5C 537.833,399.5 485.167,399.5 432.5,399.5C 432.167,399.5 431.833,399.5 431.5,399.5 Z"/></g>
<g><path style="opacity:1" fill="#fefffe" d="M 432.5,399.5 C 485.167,399.5 537.833,399.5 590.5,399.5C 590.5,403.5 590.5,407.5 590.5,411.5C 537.833,411.5 485.167,411.5 432.5,411.5C 432.5,407.5 432.5,403.5 432.5,399.5 Z"/></g>
<g><path style="opacity:1" fill="#c0cbd2" d="M 431.5,399.5 C 431.833,399.5 432.167,399.5 432.5,399.5C 432.5,403.5 432.5,407.5 432.5,411.5C 485.167,411.5 537.833,411.5 590.5,411.5C 590.5,411.833 590.5,412.167 590.5,412.5C 537.5,412.5 484.5,412.5 431.5,412.5C 431.5,408.167 431.5,403.833 431.5,399.5 Z"/></g>
<g><path style="opacity:1" fill="#fafbfc" d="M 287.5,460.5 C 287.783,461.289 288.283,461.956 289,462.5C 289.5,448.504 289.667,434.504 289.5,420.5C 293.182,420.335 296.848,420.501 300.5,421C 370.958,527.414 441.291,633.914 511.5,740.5C 581.709,633.914 652.042,527.414 722.5,421C 726.152,420.501 729.818,420.335 733.5,420.5C 733.167,434.516 733.501,448.516 734.5,462.5C 735.107,462.376 735.44,462.043 735.5,461.5C 743.747,447.915 752.413,434.581 761.5,421.5C 765.445,420.509 769.445,420.176 773.5,420.5C 773.5,578.833 773.5,737.167 773.5,895.5C 768.5,895.5 763.5,895.5 758.5,895.5C 758.667,748.166 758.5,600.833 758,453.5C 750.333,465.167 742.667,476.833 735,488.5C 734.5,624.166 734.333,759.833 734.5,895.5C 729.5,895.5 724.5,895.5 719.5,895.5C 719.667,767.833 719.5,640.166 719,512.5C 656.726,607.771 594.06,702.771 531,797.5C 524.5,787.833 518,778.167 511.5,768.5C 505,778.167 498.5,787.833 492,797.5C 428.94,702.771 366.274,607.771 304,512.5C 303.5,640.166 303.333,767.833 303.5,895.5C 298.5,895.5 293.5,895.5 288.5,895.5C 288.667,759.833 288.5,624.166 288,488.5C 280.333,476.833 272.667,465.167 265,453.5C 264.5,600.833 264.333,748.166 264.5,895.5C 259.5,895.5 254.5,895.5 249.5,895.5C 249.5,737.167 249.5,578.833 249.5,420.5C 253.767,420.203 257.934,420.536 262,421.5C 270.329,434.653 278.829,447.653 287.5,460.5 Z"/></g>
<g><path style="opacity:1" fill="#95a8b4" d="M 289.5,420.5 C 289.667,434.504 289.5,448.504 289,462.5C 288.283,461.956 287.783,461.289 287.5,460.5C 288.167,447.167 288.833,433.833 289.5,420.5 Z"/></g>
<g><path style="opacity:1" fill="#bcc7cf" d="M 733.5,420.5 C 734.167,434.167 734.833,447.833 735.5,461.5C 735.44,462.043 735.107,462.376 734.5,462.5C 733.501,448.516 733.167,434.516 733.5,420.5 Z"/></g>
<g><path style="opacity:1" fill="#153f59" d="M 303.5,453.5 C 369.891,553.263 436.058,653.263 502,753.5C 499.5,759.476 496.167,765.143 492,770.5C 429.418,676.338 367.085,582.005 305,487.5C 303.544,476.269 303.044,464.936 303.5,453.5 Z"/></g>
<g><path style="opacity:1" fill="#163f59" d="M 718.5,453.5 C 719.659,464.326 719.826,475.326 719,486.5C 656.333,581.167 593.667,675.833 531,770.5C 526.833,765.143 523.5,759.476 521,753.5C 587.056,653.618 652.889,553.618 718.5,453.5 Z"/></g>
</svg>
